REM MD5 83a43839a79e1d4befb1f51d78409313
FILE "Scrabble (Europe) (En,De,Es).bin" BINARY
  TRACK 01 MODE2/2352
    INDEX 01 00:00:00
  TRACK 02 AUDIO
    INDEX 00 28:52:00
    INDEX 01 28:54:00
  TRACK 03 AUDIO
    INDEX 00 35:19:48
    INDEX 01 35:21:48
  TRACK 04 AUDIO
    INDEX 00 38:46:60
    INDEX 01 38:48:60
REM LEADOUT 42:03:58
